<svg width="126" height="100" viewBox="0 0 126 100" fill="none" xmlns="http://www.w3.org/2000/svg">
<circle cx="76" cy="50" r="49.5" fill="#12C0DD" stroke="#12C0DD"/>
<path d="M65.527 13.018V81.5842C65.527 85.5766 62.2905 88.8131 58.2981 88.8131H7.72892C3.73649 88.8131 0.5 85.5766 0.5 81.5842V13.018C0.5 9.02555 3.73649 5.78906 7.72892 5.78906H58.2981C62.2905 5.78906 65.527 9.02555 65.527 13.018Z" fill="white" stroke="black"/>
<path d="M45.6041 94.5197L45.1241 94.3795L45.6041 94.5197L46.7748 90.5124L46.2948 90.3722L46.7748 90.5124C47.2118 89.0164 48.0186 87.6543 49.1207 86.5522L76.0937 59.5792C77.7904 57.8825 80.5412 57.8825 82.2379 59.5792L84.2274 61.5687C85.9239 63.2651 85.9239 66.0159 84.2272 67.7126L57.2542 94.6856C56.152 95.7878 54.7902 96.5946 53.294 97.0316L53.4342 97.5116L53.294 97.0316L49.2867 98.2023C47.0355 98.86 44.9464 96.7708 45.6041 94.5197Z" fill="white" stroke="black"/>
<path d="M53.2942 97.0323L53.294 97.0323L49.2867 98.203C47.0355 98.8607 44.9464 96.7715 45.6041 94.5204L45.1241 94.3802L45.6041 94.5204L46.7747 90.5131C46.7747 90.5131 46.7747 90.5131 46.7748 90.5131C46.8934 90.1069 47.0412 89.7106 47.2149 89.3256L54.4816 96.5924C54.0968 96.766 53.7005 96.9137 53.2942 97.0323Z" fill="#12C0DD" stroke="black"/>
<path d="M79.4526 72.501L74.7772 77.1763L66.6448 69.0439L71.3202 64.3686L79.4526 72.501Z" fill="#12C0DD" stroke="black"/>
<path d="M59.3575 84.4509L59.3574 84.4508C59.0175 84.1109 59.0176 83.5599 59.3574 83.2203L59.3574 83.2203L63.771 78.8066C64.1109 78.4668 64.6619 78.4669 65.0015 78.8066L65.0016 78.8066C65.3414 79.1465 65.3414 79.6975 65.0016 80.0373L60.5879 84.451C60.418 84.6208 60.1963 84.7057 59.9727 84.7057C59.7492 84.7057 59.5274 84.6208 59.3575 84.4509Z" fill="#12C0DD" stroke="black"/>
<path d="M15.7093 76.8052C12.598 76.8052 10.0659 74.2732 10.0659 71.1619C10.0659 68.0506 12.5979 65.5186 15.7093 65.5186C18.8206 65.5186 21.3526 68.0506 21.3526 71.1619C21.3526 74.2732 18.8204 76.8052 15.7093 76.8052ZM15.7093 67.2589C13.5567 67.2589 11.8063 69.0093 11.8063 71.1619C11.8063 73.3145 13.5567 75.0649 15.7093 75.0649C17.8618 75.0649 19.6122 73.3145 19.6122 71.1619C19.6122 69.0093 17.8616 67.2589 15.7093 67.2589Z" fill="white" stroke="black"/>
<path d="M53.7742 72.0314H30.8399C30.3593 72.0314 29.9697 71.6418 29.9697 71.1612C29.9697 70.6806 30.3593 70.291 30.8399 70.291H53.7744C54.2549 70.291 54.6445 70.6806 54.6445 71.1612C54.6445 71.6417 54.2548 72.0314 53.7742 72.0314Z" fill="white" stroke="black"/>
<path d="M10.0659 53.3211C10.0659 56.4324 12.598 58.9644 15.7093 58.9644C18.8204 58.9644 21.3524 56.4324 21.3526 53.3211H10.0659ZM10.0659 53.3211C10.0659 50.2098 12.598 47.6777 15.7093 47.6777M10.0659 53.3211L15.7093 47.6777M15.7093 47.6777C18.8206 47.6777 21.3526 50.2098 21.3526 53.321L15.7093 47.6777ZM15.7093 49.4181C13.5567 49.4181 11.8063 51.1685 11.8063 53.3211C11.8063 55.4736 13.5567 57.2241 15.7093 57.2241C17.8618 57.2241 19.6122 55.4736 19.6122 53.3211C19.6122 51.1685 17.8616 49.4181 15.7093 49.4181Z" fill="white" stroke="black"/>
<path d="M30.8399 54.1896H53.7742C54.2547 54.1896 54.6444 53.8 54.6445 53.3194L30.8399 54.1896ZM30.8399 54.1896C30.3593 54.1896 29.9697 53.8 29.9697 53.3194M30.8399 54.1896L29.9697 53.3194M29.9697 53.3194C29.9697 52.8388 30.3593 52.4492 30.8399 52.4492M29.9697 53.3194L30.8399 52.4492M30.8399 52.4492H53.7744M30.8399 52.4492H53.7744M53.7744 52.4492C54.2549 52.4492 54.6445 52.8388 54.6445 53.3193L53.7744 52.4492Z" fill="white" stroke="black"/>
<path d="M30.8399 36.3488H53.7742C54.2547 36.3488 54.6444 35.9592 54.6445 35.4786L30.8399 36.3488ZM30.8399 36.3488C30.3593 36.3488 29.9697 35.9591 29.9697 35.4786M30.8399 36.3488L29.9697 35.4786M29.9697 35.4786C29.9697 34.998 30.3593 34.6084 30.8399 34.6084M29.9697 35.4786L30.8399 34.6084M30.8399 34.6084H53.7744M30.8399 34.6084H53.7744M53.7744 34.6084C54.2549 34.6084 54.6445 34.998 54.6445 35.4785L53.7744 34.6084Z" fill="white" stroke="black"/>
<path d="M12.5981 39.0287L12.5979 39.0286L9.28173 35.7124C8.9419 35.3726 8.9419 34.8215 9.28173 34.4817C9.62161 34.1418 10.1726 34.1419 10.5122 34.4816L10.5122 34.4817L12.8596 36.8291L13.2132 37.1827L13.5667 36.8291L20.9056 29.4902C21.2455 29.1504 21.7965 29.1504 22.1361 29.4902L22.1361 29.4902C22.476 29.8301 22.4759 30.3811 22.1362 30.7207L22.1361 30.7207L13.8284 39.0286L13.8283 39.0287C13.6585 39.1987 13.4368 39.2835 13.2132 39.2835C12.9897 39.2835 12.7679 39.1987 12.5981 39.0287Z" fill="#12C0DD" stroke="black"/>
<path d="M47.3487 22.0947H18.678C16.8848 22.0947 15.4312 20.6411 15.4312 18.8479V15.5866C15.4312 13.7935 16.8848 12.3398 18.678 12.3398H47.3487C49.1419 12.3398 50.5955 13.7935 50.5955 15.5866V18.8479C50.5955 20.6409 49.1419 22.0947 47.3487 22.0947Z" fill="#12C0DD" stroke="black"/>
</svg>
