<svg width="115" height="100" viewBox="0 0 115 100" fill="none" xmlns="http://www.w3.org/2000/svg">
<g id="&#208;&#184;&#208;&#186;&#208;&#190;&#208;&#189;&#208;&#186;&#208;&#176; 3">
<g id="&#208;&#189;&#208;&#190;&#208;&#188;&#208;&#181;&#209;&#128;">
<circle id="Ellipse 1" cx="65" cy="50" r="49.5" fill="#12C0DD" stroke="#12C0DD"/>
</g>
<g id="Group 108">
<g id="Group">
<g id="Group_2">
<path id="Vector" d="M46.1432 36.1668C46.1432 44.7967 39.1473 51.7926 30.5174 51.7926C21.8875 51.7926 14.8916 44.7967 14.8916 36.1668C14.8916 27.5369 21.8875 20.541 30.5174 20.541C39.1473 20.541 46.1432 27.5369 46.1432 36.1668Z" fill="#12C0DD" stroke="black"/>
</g>
</g>
</g>
<path id="Vector_2" d="M0.5 27.5H86.5V83.9882C86.5 84.6531 86.2339 85.2916 85.7589 85.763C85.2838 86.2345 84.6387 86.5 83.9652 86.5H3.0348C2.3613 86.5 1.71615 86.2345 1.24108 85.763C0.766127 85.2916 0.5 84.6531 0.5 83.9882V27.5Z" fill="white" stroke="black"/>
<path id="Vector_3" d="M18.5052 54.979L18.5049 54.991C18.4412 57.6655 19.0252 60.3163 20.2082 62.7214C21.2712 64.8307 22.9485 66.5763 25.0241 67.7322C27.284 68.9465 29.8253 69.5545 32.396 69.4958L32.4076 69.4955L32.4193 69.4958C35.7102 69.5741 38.9321 68.5569 41.5702 66.6077C41.8605 66.3907 42.1012 66.116 42.2768 65.8015C42.4298 65.4834 42.504 65.1339 42.4933 64.7819L42.4929 64.768L42.4933 64.7541C42.5073 64.2038 42.3301 63.6648 41.9905 63.2275L41.984 63.219L41.9778 63.2104C41.8564 63.0394 41.6951 62.8993 41.5072 62.8022C41.3192 62.705 41.1103 62.6537 40.8978 62.6528L40.8914 62.6528L40.8914 62.6528C40.6241 62.6482 40.3579 62.6877 40.1038 62.7696C39.7728 62.897 39.4547 63.055 39.1538 63.2416L39.1502 63.2438L39.1502 63.2438C38.1018 63.8815 36.9934 64.4168 35.8407 64.8421L35.829 64.8464L35.829 64.8463C34.8338 65.1855 33.788 65.3557 32.7357 65.3497C32.7353 65.3497 32.7348 65.3497 32.7344 65.3497L32.7373 64.8497C27.3513 64.8497 24.6576 61.5595 24.6561 54.9791L18.5052 54.979ZM18.5052 54.979L18.5049 54.9669C18.4398 52.2997 19.0238 49.6559 20.2077 47.2592L18.5052 54.979ZM42.3854 62.9208C42.2176 62.6846 41.9952 62.4916 41.7368 62.358C41.4784 62.2244 41.1914 62.1541 40.8999 62.1528C40.573 62.1473 40.2474 62.1964 39.9369 62.2981L42.3854 62.9208ZM42.3854 62.9208C42.7956 63.4489 43.0101 64.1007 42.9931 64.7669L42.3854 62.9208Z" fill="#12C0DD" stroke="black"/>
<path id="Vector_4" d="M49.4996 55.6235C48.6988 55.6235 47.9281 55.3146 47.3462 54.76C46.8022 54.1595 46.5 53.3756 46.5 52.5617C46.5 51.7478 46.8022 50.964 47.3462 50.3635C47.9281 49.8089 48.6988 49.5 49.4996 49.5C50.3005 49.5 51.0712 49.8089 51.6531 50.3636C52.1975 50.9638 52.5 51.7477 52.5 52.5617C52.5 53.3757 52.1975 54.1596 51.6531 54.7599C51.0712 55.3146 50.3005 55.6235 49.4996 55.6235ZM49.4996 69.5C48.6986 69.5 47.9279 69.1908 47.3463 68.6357C46.8022 68.0352 46.5 67.2513 46.5 66.4374C46.5 65.6234 46.8022 64.8395 47.3463 64.2391C47.9279 63.684 48.6986 63.3748 49.4996 63.3748C50.3006 63.3748 51.0714 63.684 51.653 64.2392C52.1975 64.8394 52.5 65.6233 52.5 66.4374C52.5 67.2514 52.1975 68.0354 51.653 68.6356C51.0714 69.1908 50.3006 69.5 49.4996 69.5Z" fill="#12C0DD" stroke="black"/>
<path id="Vector_5" d="M55.6375 41.0277L55.6375 41.0277L55.6369 41.0258C55.5615 40.7823 55.5155 40.5298 55.5002 40.2741C55.4965 40.0359 55.5438 39.8004 55.6381 39.585C55.7335 39.3669 55.8742 39.1759 56.0483 39.0252L56.0484 39.0253L56.0584 39.0162C56.4315 38.675 56.9091 38.4931 57.3982 38.5002L57.3982 38.5004L57.4121 38.5002C57.788 38.4952 58.1579 38.6125 58.4703 38.8384C58.8044 39.0976 59.0519 39.4657 59.1711 39.8896L59.1709 39.8897L59.1744 39.9009L68.3983 69.9655C68.4612 70.1941 68.4951 70.4307 68.499 70.6689L68.4992 70.6763C68.5069 70.9246 68.4604 71.1709 68.364 71.3966C68.2676 71.6223 68.1242 71.8205 67.9459 71.9774L67.9459 71.9773L67.9388 71.9838C67.5658 72.3248 67.0885 72.5067 66.5996 72.4998L66.5921 72.4997L66.5847 72.4998C66.2093 72.5056 65.8396 72.3891 65.5274 72.1637C65.1933 71.9049 64.946 71.5371 64.8269 71.1134L64.827 71.1134L64.8237 71.1027L55.6375 41.0277Z" fill="#12C0DD" stroke="black"/>
<path id="Vector_6" d="M35.5796 16.2837L35.58 16.2843C36.0714 17.0066 36.7282 17.5978 37.4946 18.0065C38.261 18.4153 39.1139 18.6291 39.9801 18.6292H83.9653C84.6347 18.6292 85.2784 18.8997 85.7545 19.3844C86.2308 19.8693 86.5 20.5288 86.5 21.2184V27.5H0.5V14.0892C0.5 13.3997 0.769169 12.7401 1.24552 12.2552C1.72158 11.7706 2.36533 11.5 3.03466 11.5H30.0545C30.0545 11.5 30.0545 11.5 30.0545 11.5C30.756 11.5001 31.4474 11.6732 32.0696 12.005C32.6917 12.3368 33.2266 12.8176 33.6277 13.407C33.6278 13.4072 33.6279 13.4073 33.6279 13.4074L35.5796 16.2837Z" fill="white" stroke="black"/>
<path id="Vector_7" d="M29.5 19.5C29.5 20.6046 28.6046 21.5 27.5 21.5C26.3954 21.5 25.5 20.6046 25.5 19.5C25.5 18.3954 26.3954 17.5 27.5 17.5C28.6046 17.5 29.5 18.3954 29.5 19.5Z" fill="white" stroke="black"/>
<path id="Vector_8" d="M20.5 19.5C20.5 20.6046 19.6046 21.5 18.5 21.5C17.3954 21.5 16.5 20.6046 16.5 19.5C16.5 18.3954 17.3954 17.5 18.5 17.5C19.6046 17.5 20.5 18.3954 20.5 19.5Z" fill="#D4FBFF" stroke="black"/>
<path id="Vector_9" d="M11.5 19.5C11.5 20.6046 10.6046 21.5 9.5 21.5C8.39543 21.5 7.5 20.6046 7.5 19.5C7.5 18.3954 8.39543 17.5 9.5 17.5C10.6046 17.5 11.5 18.3954 11.5 19.5Z" fill="#12C0DD" stroke="black"/>
</g>
</svg>
