<svg width="115" height="100" viewBox="0 0 115 100" fill="none" xmlns="http://www.w3.org/2000/svg">
<circle cx="65" cy="50" r="49.5" fill="#12C0DD" stroke="#12C0DD"/>
<path d="M28.749 41.293H28.3407L28.2591 41.6931C27.1888 46.9408 22.5333 50.9023 16.9766 50.9023C15.9248 50.9023 15.0742 50.0517 15.0742 49V15.207C15.0742 11.5091 18.0833 8.5 21.7812 8.5H60.2188C63.9167 8.5 66.9258 11.5091 66.9258 15.207V34.5859C66.9258 38.2839 63.9167 41.293 60.2188 41.293H28.749ZM55.9224 76.0883L56.2484 76.8282L56.7647 76.206C59.3237 73.1223 63.1283 71.1211 67.4258 71.1211C75.1052 71.1211 81.5 77.3701 81.5 85.0352V87.5977C81.5 88.6494 80.6494 89.5 79.5977 89.5H2.40234C1.35063 89.5 0.5 88.6494 0.5 87.5977V85.0352C0.5 77.3701 6.89476 71.1211 14.5742 71.1211C18.8717 71.1211 22.6763 73.1223 25.2353 76.206L25.7516 76.8282L26.0776 76.0883C28.6083 70.344 34.3373 66.3164 41 66.3164C47.6627 66.3164 53.3917 70.344 55.9224 76.0883Z" fill="white" stroke="black"/>
<path d="M31.8906 56.207C31.8906 51.1835 35.9787 47.0977 41 47.0977C46.0213 47.0977 50.1094 51.1835 50.1094 56.207C50.1094 61.2305 46.0213 65.3164 41 65.3164C35.9787 65.3164 31.8906 61.2305 31.8906 56.207ZM7.86719 63.4141C7.86719 59.7161 10.8762 56.707 14.5742 56.707C18.2722 56.707 21.2812 59.7161 21.2812 63.4141C21.2812 67.112 18.2722 70.1211 14.5742 70.1211C10.8762 70.1211 7.86719 67.112 7.86719 63.4141ZM60.7188 63.4141C60.7188 59.7161 63.7278 56.707 67.4258 56.707C71.1238 56.707 74.1328 59.7161 74.1328 63.4141C74.1328 67.112 71.1238 70.1211 67.4258 70.1211C63.7278 70.1211 60.7188 67.112 60.7188 63.4141ZM31.3906 18.2695H50.6094C51.6611 18.2695 52.5117 19.1202 52.5117 20.1719C52.5117 21.2236 51.6611 22.0742 50.6094 22.0742H31.3906C30.3389 22.0742 29.4883 21.2236 29.4883 20.1719C29.4883 19.1202 30.3389 18.2695 31.3906 18.2695ZM31.3906 27.8789H50.6094C51.6611 27.8789 52.5117 28.7295 52.5117 29.7812C52.5117 30.833 51.6611 31.6836 50.6094 31.6836H31.3906C30.3389 31.6836 29.4883 30.833 29.4883 29.7812C29.4883 28.7295 30.3389 27.8789 31.3906 27.8789Z" fill="#12C0DD" stroke="black"/>
<path d="M31.5234 56.207C31.5234 51.1835 35.6115 47.0977 40.6328 47.0977C45.6541 47.0977 49.7422 51.1835 49.7422 56.207C49.7422 61.2305 45.6541 65.3164 40.6328 65.3164C35.6115 65.3164 31.5234 61.2305 31.5234 56.207ZM7.5 63.4141C7.5 59.7161 10.5091 56.707 14.207 56.707C17.905 56.707 20.9141 59.7161 20.9141 63.4141C20.9141 67.112 17.905 70.1211 14.207 70.1211C10.5091 70.1211 7.5 67.112 7.5 63.4141ZM60.3516 63.4141C60.3516 59.7161 63.3606 56.707 67.0586 56.707C70.7566 56.707 73.7656 59.7161 73.7656 63.4141C73.7656 67.112 70.7566 70.1211 67.0586 70.1211C63.3606 70.1211 60.3516 67.112 60.3516 63.4141Z" fill="white" stroke="black"/>
</svg>
