<svg width="115" height="100" viewBox="0 0 115 100" fill="none" xmlns="http://www.w3.org/2000/svg">
<circle cx="65" cy="50" r="49.5" fill="#12C0DD" stroke="#12C0DD"/>
<path d="M4.52254 5.5H66.3305C69.3845 5.5 71.8606 7.9761 71.8606 11.03V83.3906C71.8606 86.4446 69.3845 88.9207 66.3305 88.9207H4.52254C2.30073 88.9207 0.5 87.1199 0.5 84.8981V9.52254C0.5 7.30073 2.30073 5.5 4.52254 5.5Z" fill="white" stroke="black"/>
<path d="M4.52254 5.5H63.3155C66.3695 5.5 68.8456 7.9761 68.8456 11.03V83.3906C68.8456 86.4446 66.3695 88.9207 63.3155 88.9207H4.52254C2.30073 88.9207 0.5 87.1199 0.5 84.8981V9.52254C0.5 7.30073 2.30073 5.5 4.52254 5.5Z" fill="#12C0DD" stroke="black"/>
<path d="M60.2757 8.51465H63.3158C64.7055 8.51465 65.8308 9.64001 65.8308 11.0297V83.3903C65.8308 84.7799 64.7055 85.9053 63.3158 85.9053H60.2757C60.6068 85.1354 60.8008 84.289 60.8008 83.3903V11.0297C60.8008 10.1309 60.6068 9.28454 60.2757 8.51465Z" fill="white" stroke="black"/>
<path d="M4.52254 5.5H54.2704C57.3244 5.5 59.8005 7.9761 59.8005 11.03V83.3906C59.8005 86.4446 57.3244 88.9207 54.2704 88.9207H4.52254C2.30073 88.9207 0.5 87.1199 0.5 84.8981V9.52254C0.5 7.30073 2.30073 5.5 4.52254 5.5Z" fill="white" stroke="black"/>
<path d="M51.2554 88.9207H4.52254C2.30073 88.9207 0.5 87.1199 0.5 84.8981V9.52254C0.5 7.30073 2.30073 5.5 4.52254 5.5H51.2554C54.3094 5.5 56.7855 7.9761 56.7855 11.03V83.3906C56.7855 86.4446 54.3094 88.9207 51.2554 88.9207Z" fill="white" stroke="black"/>
<path d="M10.0526 88.9207H4.52254C2.30073 88.9207 0.5 87.1199 0.5 84.8981V9.52254C0.5 7.30073 2.30073 5.5 4.52254 5.5H10.0526V88.9207Z" fill="#12C0DD" stroke="black"/>
<path d="M50.7553 47.2104C50.7553 56.5089 43.2174 64.0468 33.9189 64.0468C24.6204 64.0468 17.0825 56.5089 17.0825 47.2104C17.0825 37.9119 24.6204 30.374 33.9189 30.374C43.2174 30.374 50.7553 37.9119 50.7553 47.2104Z" fill="#12C0DD" stroke="black"/>
<path d="M38.8054 40.7371L38.8055 40.7376C39.2962 42.8913 38.4265 45.0432 36.5763 46.1979L36.3115 45.7737L36.5763 46.1979C34.2674 47.6388 32.9116 49.9952 32.9116 52.4867C32.9116 53.0439 33.3628 53.4942 33.9191 53.4942C34.4751 53.4942 34.9269 53.0441 34.9281 52.4862C34.9281 52.4861 34.9281 52.4859 34.9281 52.4858L35.4281 52.4867C35.4281 50.854 36.3552 49.3013 37.9095 48.3305L38.8054 40.7371ZM38.8054 40.7371C38.3933 38.9371 36.9161 37.4599 35.1161 37.0478L35.1156 37.0477M38.8054 40.7371L35.1156 37.0477M35.1156 37.0477C33.5573 36.6925 32.0137 37.0294 30.7915 38.0034M35.1156 37.0477L29.5349 36.4292C27.8493 37.7741 26.8831 39.78 26.8831 41.9341C26.8831 42.4913 27.3342 42.9416 27.8906 42.9416C28.4469 42.9416 28.8981 42.4913 28.8981 41.9341C28.8981 40.3982 29.5884 38.9622 30.7915 38.0034M30.7915 38.0034L31.1031 38.3945L30.7915 38.0034Z" fill="#DBDEE3" stroke="black"/>
<path d="M35.3032 58.1402C35.3032 58.9048 34.6834 59.5246 33.9188 59.5246C33.1542 59.5246 32.5344 58.9048 32.5344 58.1402C32.5344 57.3757 33.1542 56.7559 33.9188 56.7559C34.6834 56.7559 35.3032 57.3757 35.3032 58.1402Z" fill="#DBDEE3" stroke="black"/>
<path d="M11.0527 96.8419V88.9209H25.1279V96.8419C25.1279 97.7395 24.0429 98.1889 23.4081 97.5541L19.5101 93.6561C19.51 93.656 19.5098 93.6559 19.5097 93.6557C19.5097 93.6557 19.5097 93.6557 19.5097 93.6557C18.7261 92.8706 17.4552 92.8714 16.6709 93.6557L12.7725 97.5541C12.1377 98.1889 11.0527 97.7395 11.0527 96.8419Z" fill="#12C0DD" stroke="black"/>
</svg>
