<svg width="126" height="100" viewBox="0 0 126 100" fill="none" xmlns="http://www.w3.org/2000/svg">
<circle cx="76" cy="50" r="49.5" fill="#12C0DD" stroke="#12C0DD"/>
<path d="M2.99249 16.5H81.3229C82.695 16.5 83.8154 17.6193 83.8154 18.9925V74.3011C83.8154 75.6742 82.695 76.7935 81.3229 76.7935H2.99249C1.62036 76.7935 0.5 75.6742 0.5 74.3011V18.9925C0.5 17.6205 1.62051 16.5 2.99249 16.5Z" fill="#8B8186" stroke="black"/>
<path d="M2.99258 17.6074H81.323C82.0847 17.6074 82.7095 18.2321 82.7095 18.9939V70.2665H1.60474V18.9939C1.60474 18.2324 2.22922 17.6074 2.99258 17.6074Z" fill="#F4F4F6" stroke="black"/>
<path d="M4.77979 66.6503V21.3818H79.5331V66.6503H4.77979Z" fill="#A4DAE4" stroke="black"/>
<path d="M4.78125 28.5312V21.3818H79.5346V28.5312H4.78125Z" fill="#14AFBE" stroke="black"/>
<path d="M16.0103 60.401V32.2334H68.3029V60.401H16.0103Z" fill="#F4F4F6" stroke="black"/>
<path fill-rule="evenodd" clip-rule="evenodd" d="M1.10474 70.7656H83.2081V74.3016C83.2081 75.3395 82.3582 76.1908 81.3216 76.1908H2.99258C1.95467 76.1908 1.1061 75.3395 1.1061 74.3016V70.7656H1.10474Z" fill="white"/>
<path d="M18.4998 46.5V34.5H39.4998V46.5H18.4998Z" fill="#12C0DD" stroke="black"/>
<path d="M35.2959 48.0524V46.8867H48.9274V48.0524H35.2959Z" fill="#01899C" stroke="black"/>
<path d="M46.599 55.8255L44.5858 52.2699L44.3393 51.8345L43.9041 52.0813L41.792 53.2791L41.3467 48.7327L41.3467 48.7327L40.9443 44.6265L44.2588 47.0841L44.259 47.0843L47.9287 49.8027L45.8767 50.9642L45.4415 51.2106L45.688 51.6458L47.7013 55.2005L47.1513 55.5124L47.1513 55.5124L46.599 55.8255Z" fill="#5A3445" stroke="black"/>
<path d="M51.9055 44.65V34.9346H65.537V44.65H51.9055Z" fill="#E64037" stroke="black"/>
<path d="M51.9055 48.0524V46.8867H65.537V48.0524H51.9055Z" fill="#E64037" stroke="black"/>
<path d="M23.9399 40.7597L29.0489 42.903V43.7903L22.187 40.8254V39.7652L29.0489 36.8335V37.7186L23.9418 39.8368L22.8345 40.296L23.9399 40.7597Z" fill="#F4F4F6" stroke="black"/>
<path d="M66.957 40.663L72.066 42.8063V43.6936L65.2041 40.7287V39.6685L72.066 36.7368V37.6219L66.9588 39.7401L65.8516 40.1993L66.957 40.663Z" fill="#F4F4F6" stroke="black"/>
<path d="M64.1603 55.6328C57.712 61.3394 47.8574 60.7389 42.1494 54.2893C36.4428 47.8396 37.0446 37.9849 43.4929 32.2783C49.9427 26.5716 59.7973 27.1722 65.5038 33.6218C71.2105 40.0715 70.6087 49.9262 64.1603 55.6328Z" fill="#F4F4F6" stroke="black"/>
<path d="M73.6438 39.9216L73.6438 39.9216C71.416 28.9755 60.7371 21.9094 49.7911 24.1398L49.7909 24.1399C38.8462 26.3663 31.7801 37.0451 34.0078 47.9899L73.6438 39.9216ZM73.6438 39.9216C75.8729 50.8664 68.8068 61.5453 57.8608 63.7717L57.8606 63.7717M73.6438 39.9216L57.8606 63.7717M57.8606 63.7717C46.916 66.0021 36.237 58.9348 34.0079 47.9899L57.8606 63.7717ZM38.2515 47.1256C40.0011 55.7172 48.4076 61.2789 56.9978 59.5294C65.5894 57.7825 71.1523 49.3746 69.4028 40.7832L69.4028 40.7831C67.6533 32.1943 59.2468 26.6313 50.6553 28.3794L50.6552 28.3794C42.0651 30.129 36.502 38.5368 38.2515 47.1256ZM38.2515 47.1256L38.7415 47.0259M38.2515 47.1256L38.7415 47.0259M38.7415 47.0259C40.4359 55.3468 48.5784 60.7338 56.898 59.0394M38.7415 47.0259L56.898 59.0394M56.898 59.0394C65.2189 57.3477 70.6073 49.2039 68.9129 40.8829L56.898 59.0394ZM74.1337 39.8218C76.4179 51.0372 69.1771 61.9802 57.9604 64.2617L49.6912 23.6499C60.9079 21.3643 71.8509 28.6051 74.1337 39.8218Z" fill="white" stroke="black"/>
<path d="M70.2899 65.5923L65.8008 60.5178L68.851 57.8195L73.3401 62.894L70.2899 65.5923Z" fill="white" stroke="black"/>
<path d="M99.2086 95.2324L99.0951 95.3327C96.8838 97.1818 93.5565 96.9438 91.6341 94.7731C91.6341 94.773 91.6341 94.773 91.634 94.7729L69.8832 70.1945C67.9276 67.9835 68.1359 64.5741 70.3454 62.6187C72.5547 60.6634 75.9641 60.8726 77.9197 63.0811L99.6707 87.6597L99.6708 87.6598C101.626 89.868 101.418 93.2798 99.2086 95.2324Z" fill="#12C0DD" stroke="black"/>
<path d="M69.5688 69.8043L77.5702 62.7221C75.5779 60.8558 72.4281 60.7751 70.3449 62.6186L69.5688 69.8043ZM69.5688 69.8043C67.9587 67.5987 68.2629 64.4624 70.3448 62.6187L69.5688 69.8043ZM99.2095 95.2324L99.2091 95.2327C97.1258 97.0776 93.9749 96.9979 91.9838 95.132L99.9855 88.0495C101.597 90.253 101.292 93.3913 99.2095 95.2324ZM89.6105 92.4863L71.9056 72.4798L79.9422 65.3664L97.6484 85.3729L89.6105 92.4863Z" fill="white" stroke="black"/>
</svg>
