<svg width="131" height="100" viewBox="0 0 131 100" fill="none" xmlns="http://www.w3.org/2000/svg">
<circle cx="81" cy="50" r="49.5" fill="#12C0DD" stroke="#12C0DD"/>
<g clip-path="url(#clip0)">
<path d="M72.0483 42.2959L72.0483 42.296C73.2622 47.2103 73.3251 52.5111 72.0594 57.6608C71.7449 58.94 72.1927 60.2923 73.2382 61.1099L73.5462 60.716L73.2383 61.1099L77.2283 64.2297C78.1459 64.9472 78.3951 66.2307 77.8127 67.2395L74.3362 73.2611C73.7538 74.2698 72.5177 74.6957 71.4374 74.2597L66.7386 72.3633C65.5278 71.8746 64.1295 72.1255 63.1817 73.0387C59.4924 76.5923 54.9539 79.2673 49.8991 80.7288L50.038 81.2091L49.8991 80.7288C48.6319 81.0952 47.6819 82.1596 47.4966 83.4761L46.7907 88.4889C46.6283 89.6425 45.6413 90.5002 44.4763 90.5002H37.5234C36.3585 90.5002 35.3715 89.6425 35.2091 88.4889L34.5032 83.4761L34.0081 83.5458L34.5032 83.4761C34.3177 82.1594 33.3677 81.0952 32.1007 80.7288C27.0459 79.2672 22.5076 76.5923 18.8181 73.0387L18.4713 73.3988L18.8181 73.0387C17.8702 72.1258 16.4719 71.8746 15.261 72.3633L10.5622 74.2598C9.48211 74.6956 8.24577 74.2698 7.66341 73.2611L7.23039 73.5111L7.66341 73.2611L4.18686 67.2395C3.60447 66.2307 3.85367 64.9472 4.77129 64.2297L8.76153 61.1097C9.78656 60.3083 10.2656 58.977 9.95147 57.7044L9.95146 57.7044C8.73763 52.79 8.67466 47.4893 9.94042 42.3396L9.45487 42.2202L9.94042 42.3396C10.2548 41.0603 9.80708 39.7081 8.76155 38.8905L8.76153 38.8905L4.77146 35.7707C3.85385 35.0532 3.60465 33.7697 4.18704 32.7609L7.6641 26.7393L7.66412 26.7393C8.24647 25.7306 9.48262 25.3047 10.5629 25.7406C10.5629 25.7406 10.5629 25.7406 10.5629 25.7406L15.2617 27.637C16.4726 28.1257 17.8709 27.8748 18.8189 26.9616C22.5081 23.4081 27.0466 20.733 32.1014 19.2716C33.3686 18.9052 34.3186 17.8408 34.5039 16.5242L35.2098 11.5114L35.2098 11.5113C35.3721 10.3577 36.3591 9.5 37.5238 9.5H44.4767C45.6416 9.5 46.6286 10.3577 46.791 11.5112L47.2862 11.4415L46.791 11.5112L47.497 16.5241C47.6825 17.8408 48.6324 18.905 49.8995 19.2714L50.0384 18.7911L49.8995 19.2714C54.9543 20.733 59.4926 23.4079 63.182 26.9615L63.5289 26.6013L63.182 26.9615C64.1299 27.8744 65.5282 28.1256 66.739 27.6369C66.739 27.6369 66.739 27.6369 66.739 27.6369L71.4378 25.7404C72.5178 25.3046 73.754 25.7305 74.3364 26.7393L77.8129 32.7609C78.3953 33.7697 78.1461 35.0532 77.2285 35.7707L73.2383 38.8906C72.2132 39.692 71.7341 41.0233 72.0483 42.2959Z" fill="white" stroke="black"/>
<path d="M41.0006 29.2217C52.3975 29.2217 61.779 38.6033 61.779 50.0001C61.779 61.397 52.3975 70.7785 41.0006 70.7785C29.6037 70.7785 20.2222 61.397 20.2222 50.0001C20.2222 38.6033 29.6037 29.2217 41.0006 29.2217Z" fill="#12C0DD" stroke="black"/>
<path d="M36.6622 55.5635L36.6623 55.5634L43.7551 43.5057C44.0122 43.0686 44.5755 42.9226 45.0127 43.1797C45.4499 43.4369 45.5959 44 45.3386 44.4371L45.3386 44.4372L38.2458 56.495L38.2457 56.495C37.9888 56.932 37.4258 57.0782 36.9881 56.8209C36.5509 56.5637 36.405 56.0006 36.6622 55.5635Z" fill="white" stroke="black"/>
<path d="M29.3519 49.6461L28.9984 49.9997L29.3519 50.3532L32.7836 53.7849C33.1425 54.1438 33.1425 54.7252 32.7836 55.084C32.4248 55.4427 31.8434 55.4426 31.4847 55.084C31.4847 55.084 31.4847 55.084 31.4846 55.084L27.0499 50.6492C26.691 50.2904 26.691 49.709 27.0499 49.3501L31.4846 44.9154C31.4847 44.9154 31.4847 44.9154 31.4847 44.9154C31.8434 44.5569 32.4249 44.5569 32.7836 44.9154C33.1425 45.2742 33.1425 45.8556 32.7836 46.2145L29.3519 49.6461Z" fill="white" stroke="black"/>
<path d="M52.8244 49.9997L52.4709 50.3532L49.0392 53.7849C48.6803 54.1438 48.6803 54.7252 49.0392 55.084C49.3979 55.4426 49.9793 55.4427 50.3381 55.084C50.3381 55.084 50.3381 55.084 50.3381 55.084L54.7729 50.6492C55.1317 50.2904 55.1317 49.709 54.7729 49.3501L50.3381 44.9154C50.3381 44.9154 50.3381 44.9154 50.3381 44.9154C49.9794 44.5569 49.3979 44.5569 49.0392 44.9154L52.8244 49.9997ZM52.8244 49.9997L52.4709 49.6461M52.8244 49.9997L52.4709 49.6461M52.4709 49.6461L49.0392 46.2145M52.4709 49.6461L49.0392 46.2145M49.0392 46.2145C48.6803 45.8556 48.6803 45.2743 49.0391 44.9154L49.0392 46.2145Z" fill="white" stroke="black"/>
</g>
<defs>
<clipPath id="clip0">
<rect width="82" height="82" fill="white" transform="translate(0 9)"/>
</clipPath>
</defs>
</svg>
