<svg width="209" height="40" viewBox="0 0 209 40" fill="none" xmlns="http://www.w3.org/2000/svg">
<g clip-path="url(#clip0)">
<path d="M23.6068 25.2375C23.5996 24.6277 23.7859 24.0312 24.1393 23.5321C24.4928 23.033 24.9956 22.6567 25.5765 22.4564C26.0582 22.3085 26.5705 22.2881 27.0626 22.3971C27.5547 22.506 28.0095 22.7407 28.3819 23.0777C28.5588 23.2534 28.7895 23.3661 29.0378 23.3982C29.2862 23.4304 29.5383 23.3801 29.7547 23.2552L33.3062 21.2138C32.4343 19.7164 31.0889 18.5456 29.4782 17.8826C27.8675 17.2195 26.0813 17.1011 24.3959 17.5458C22.7105 17.9904 21.2199 18.9733 20.1547 20.3423C19.0896 21.7113 18.5092 23.3902 18.5034 25.1191V39.7345H23.577V31.8647H29.0385V27.6635H23.6068V25.2375Z" fill="white"/>
<path d="M16.0562 31.863H10.1172C9.90913 31.8642 9.70291 31.8244 9.51046 31.746C9.31802 31.6677 9.14318 31.5522 8.99606 31.4064C8.84895 31.2605 8.73248 31.0872 8.65341 30.8964C8.57434 30.7056 8.53424 30.5012 8.53543 30.295V27.6914H16.086V31.863H16.0562Z" fill="white"/>
<path d="M35.0974 6.89349L17.7877 0L0.507838 6.89349C0.356158 6.9542 0.226238 7.05846 0.134751 7.19288C0.0432646 7.32731 -0.00561523 7.48577 -0.00561523 7.64793C-0.00561523 7.81009 0.0432646 7.96855 0.134751 8.10297C0.226238 8.2374 0.356158 8.34166 0.507838 8.40237L4.53683 10V17.6923L5.10387 18.284C5.43216 18.6686 8.65535 21.8935 16.0567 21.8935V17.6923C12.0278 17.6923 9.75959 16.5385 8.77472 15.8876V11.6864L17.8176 15.2959L35.0974 8.40237C35.2491 8.34166 35.379 8.2374 35.4705 8.10297C35.562 7.96855 35.6109 7.81009 35.6109 7.64793C35.6109 7.48577 35.562 7.32731 35.4705 7.19288C35.379 7.05846 35.2491 6.9542 35.0974 6.89349ZM17.7877 10.7692L9.9685 7.63314L17.7877 4.52663L25.6069 7.63314L17.7877 10.7692Z" fill="#12C0DD"/>
<path d="M34.1123 39.7331V23.7863H36.9774C37.1778 23.7867 37.3777 23.8065 37.5742 23.8455C37.7207 23.8865 37.8611 23.9462 37.9921 24.023C38.1045 24.1161 38.1874 24.2394 38.2308 24.378C38.302 24.5489 38.3521 24.7277 38.38 24.9106L38.6486 26.3899C39.1638 25.5537 39.8439 24.8291 40.6482 24.2597C41.3443 23.7386 42.1934 23.4581 43.0656 23.4609C43.6975 23.4272 44.3211 23.6158 44.8264 23.9934L44.1698 27.5141C44.1619 27.6001 44.1367 27.6837 44.0957 27.7599C44.0547 27.8361 43.9987 27.9034 43.9311 27.9579C43.7786 28.0488 43.6012 28.0902 43.4237 28.0763C43.2139 28.0685 43.0046 28.0487 42.797 28.0171C42.5018 27.9637 42.2014 27.9439 41.9017 27.9579C40.6482 27.9579 39.6335 28.6384 38.9172 29.9697V39.7626H34.1123V39.7331Z" fill="white"/>
<path d="M54.1079 23.5504C55.2475 23.532 56.3807 23.7226 57.4505 24.1125C58.4193 24.4727 59.3031 25.0266 60.0469 25.7397C60.7916 26.4627 61.3628 27.3424 61.7182 28.3137C62.5141 30.5235 62.5141 32.9382 61.7182 35.148C61.3591 36.1262 60.7887 37.0148 60.0469 37.7516C59.3097 38.4801 58.4247 39.0448 57.4505 39.4084C56.3827 39.8083 55.2494 40.009 54.1079 40.0001C52.9567 40.0089 51.8137 39.8084 50.7355 39.4084C49.7613 39.0448 48.8763 38.4801 48.139 37.7516C47.3979 37.0086 46.8188 36.1223 46.4379 35.148C46.0319 34.049 45.8297 32.8864 45.841 31.7161C45.8269 30.5552 46.0293 29.4017 46.4379 28.3137C46.8041 27.3406 47.3853 26.4611 48.139 25.7397C48.8829 25.0266 49.7666 24.4727 50.7355 24.1125C51.8149 23.7201 52.9584 23.5295 54.1079 23.5504ZM54.1079 36.4498C55.2122 36.4498 56.0179 36.0652 56.5551 35.2959C57.0923 34.5267 57.3311 33.3433 57.3311 31.7752C57.3311 30.2072 57.0625 29.0238 56.5551 28.2545C56.0478 27.4853 55.2122 27.1007 54.1079 27.1007C53.0037 27.1007 52.1382 27.4853 51.601 28.2545C51.0638 29.0238 50.7952 30.2072 50.7952 31.7752C50.7952 33.3433 51.0638 34.5267 51.601 35.2959C52.1382 36.0652 52.944 36.4498 54.1079 36.4498Z" fill="white"/>
<path d="M64.9412 39.7337V23.787H67.9256C68.1904 23.7739 68.4523 23.8466 68.6717 23.9941C68.8837 24.1296 69.0337 24.342 69.0895 24.5858L69.3581 25.503C69.6551 25.2125 69.9744 24.9454 70.3131 24.7042C70.6498 24.4626 71.0097 24.2545 71.3875 24.0829C71.7824 23.9095 72.1918 23.7709 72.6112 23.6687C73.0826 23.5725 73.5624 23.5229 74.0437 23.5207C74.8425 23.5044 75.6358 23.6556 76.3716 23.9645C77.0375 24.2401 77.6225 24.6776 78.0727 25.2367C78.5532 25.7979 78.9091 26.4532 79.1172 27.1598C79.3636 27.945 79.4844 28.7636 79.4754 29.5858V39.7337H74.6704V29.5858C74.7072 28.9316 74.5177 28.2845 74.1332 27.7515C73.9347 27.5255 73.6855 27.3489 73.4056 27.2359C73.1257 27.1228 72.8229 27.0765 72.5216 27.1006C72.0066 27.1029 71.4979 27.2138 71.0294 27.426C70.5395 27.666 70.0872 27.9749 69.6864 28.3432V39.7042H64.9412V39.7337Z" fill="white"/>
<path d="M88.5781 40.0009C87.8878 40.0084 87.2014 39.8983 86.5487 39.6754C85.9899 39.4843 85.4875 39.159 85.0863 38.7287C84.6858 38.3038 84.3807 37.7996 84.191 37.2494C83.9788 36.6306 83.8778 35.9797 83.8926 35.3263V27.0719H82.5197C82.289 27.0699 82.0666 26.9859 81.893 26.8352C81.7981 26.7438 81.7248 26.6328 81.6783 26.51C81.6319 26.3872 81.6135 26.2558 81.6244 26.1251V24.2612L84.191 23.7583L85.146 19.8529C85.2654 19.35 85.6235 19.1133 86.1906 19.1133H88.6975V23.7878H92.6071V27.0423H88.6975V34.9713C88.686 35.2976 88.7801 35.619 88.9661 35.8884C89.057 36.0053 89.175 36.0986 89.3101 36.1604C89.4452 36.2222 89.5934 36.2507 89.7421 36.2435C89.8932 36.2424 90.0436 36.2225 90.1897 36.1843C90.2912 36.15 90.3908 36.1105 90.4882 36.0659C90.5646 36.0206 90.6444 35.981 90.7269 35.9476C90.8117 35.9108 90.903 35.8907 90.9955 35.8884C91.1211 35.8822 91.2458 35.9131 91.3537 35.9772C91.4645 36.0665 91.5559 36.1772 91.6223 36.3026L93.0846 38.5511C92.4566 39.0178 91.7489 39.3686 90.9955 39.5867C90.2226 39.8722 89.4029 40.0126 88.5781 40.0009Z" fill="white"/>
<path d="M102.247 23.5512C103.244 23.5445 104.235 23.7148 105.172 24.0542C106.024 24.3558 106.799 24.8408 107.44 25.4743C108.095 26.1313 108.603 26.9176 108.932 27.782C109.304 28.7652 109.486 29.809 109.469 30.8589C109.468 31.1557 109.448 31.4522 109.41 31.7465C109.396 31.9361 109.335 32.1194 109.231 32.279C109.161 32.4073 109.043 32.5031 108.902 32.5453C108.73 32.6084 108.548 32.6385 108.365 32.634H99.0835C99.2327 33.9654 99.6505 34.9417 100.307 35.5334C101.017 36.1427 101.935 36.4601 102.874 36.421C103.36 36.4382 103.845 36.3681 104.306 36.2139C104.673 36.0872 105.032 35.939 105.381 35.7701C105.709 35.5926 105.978 35.4447 106.246 35.3263C106.501 35.1855 106.79 35.114 107.082 35.1192C107.25 35.1092 107.417 35.1421 107.569 35.2146C107.72 35.2871 107.851 35.3969 107.947 35.5334L109.35 37.2494C108.88 37.7844 108.338 38.2523 107.738 38.6399C107.185 38.9813 106.594 39.2592 105.978 39.4683C105.385 39.6623 104.776 39.801 104.157 39.8826C103.584 39.9641 103.005 40.0037 102.426 40.0009C101.348 40.0096 100.277 39.8293 99.2625 39.4683C98.2916 39.1122 97.407 38.5579 96.6661 37.8411C95.892 37.0786 95.2916 36.1606 94.9053 35.1488C94.4545 33.9575 94.2319 32.6933 94.2487 31.421C94.2424 30.3912 94.4244 29.3687 94.7859 28.4033C95.1359 27.4675 95.6741 26.6119 96.3676 25.8885C97.0766 25.1531 97.9297 24.5691 98.8746 24.1725C99.9476 23.7511 101.093 23.5401 102.247 23.5512ZM102.337 26.8352C101.945 26.8133 101.552 26.8701 101.183 27.0023C100.814 27.1345 100.475 27.3393 100.188 27.6044C99.6235 28.2322 99.2691 29.0176 99.173 29.853H105.172C105.168 29.4833 105.118 29.1156 105.022 28.7583C104.925 28.4067 104.763 28.0758 104.545 27.782C104.319 27.4864 104.021 27.2523 103.68 27.1015C103.259 26.9107 102.799 26.8196 102.337 26.8352Z" fill="white"/>
<path d="M112.245 39.7337V23.787H115.229C115.494 23.7739 115.756 23.8466 115.975 23.9941C116.187 24.1296 116.337 24.342 116.393 24.5858L116.662 25.503C116.959 25.2125 117.278 24.9454 117.617 24.7042C117.953 24.4626 118.313 24.2545 118.691 24.0829C119.086 23.9095 119.495 23.7709 119.915 23.6687C120.386 23.5725 120.866 23.5229 121.347 23.5207C122.146 23.5044 122.939 23.6556 123.675 23.9645C124.341 24.2401 124.926 24.6776 125.376 25.2367C125.857 25.7979 126.213 26.4532 126.421 27.1598C126.667 27.945 126.788 28.7636 126.779 29.5858V39.7337H121.974V29.5858C122.011 28.9316 121.821 28.2845 121.437 27.7515C121.238 27.5255 120.989 27.3489 120.709 27.2359C120.429 27.1228 120.126 27.0765 119.825 27.1006C119.31 27.1029 118.801 27.2138 118.333 27.426C117.843 27.666 117.391 27.9749 116.99 28.3432V39.7042H112.245V39.7337Z" fill="white"/>
<path d="M141.552 39.7346C141.287 39.7477 141.025 39.675 140.805 39.5275C140.593 39.392 140.443 39.1796 140.388 38.9357L140.03 37.7227C139.713 38.0516 139.374 38.3581 139.015 38.6399C138.655 38.9041 138.276 39.1414 137.881 39.3499C137.464 39.5606 137.023 39.7196 136.568 39.8233C136.068 39.934 135.557 39.9837 135.045 39.9712C134.234 39.982 133.433 39.7886 132.718 39.4091C131.983 39.0278 131.349 38.4805 130.867 37.8115C130.313 37.0296 129.899 36.1588 129.644 35.2375C129.329 34.1107 129.178 32.9451 129.196 31.776C129.19 30.652 129.361 29.534 129.703 28.4624C130 27.5051 130.476 26.6118 131.106 25.8292C131.696 25.0979 132.44 24.5024 133.285 24.0837C134.158 23.6632 135.119 23.4504 136.09 23.4624C136.803 23.4415 137.514 23.5622 138.179 23.8174C138.743 24.051 139.267 24.3704 139.731 24.7641V16.7168H144.536V39.7641H141.552V39.7346ZM136.687 36.3322C137.007 36.3348 137.327 36.3051 137.642 36.2434C137.917 36.1943 138.18 36.0939 138.418 35.9476C138.671 35.8277 138.903 35.6678 139.104 35.4742C139.328 35.2716 139.537 35.0541 139.731 34.8233V28.0482C139.413 27.6732 139.001 27.3876 138.537 27.2198C138.116 27.0672 137.672 26.9872 137.224 26.9831C136.801 26.9766 136.382 27.0678 136.001 27.2493C135.612 27.4468 135.275 27.7302 135.016 28.0777C134.716 28.5425 134.495 29.052 134.359 29.5866C134.193 30.3146 134.113 31.0592 134.12 31.8056C134.11 32.5197 134.17 33.2331 134.299 33.9357C134.394 34.4227 134.565 34.892 134.807 35.3263C134.988 35.6598 135.269 35.9288 135.613 36.0955C135.949 36.2502 136.316 36.331 136.687 36.3322Z" fill="white"/>
<path d="M148.267 39.7346V16.7168H153.072V25.5038C153.662 24.92 154.349 24.4398 155.101 24.0837C155.945 23.7086 156.863 23.5265 157.787 23.5511C158.595 23.5447 159.392 23.7271 160.115 24.0837C160.848 24.4538 161.482 24.9912 161.965 25.6517C162.519 26.4228 162.934 27.2838 163.189 28.1961C163.502 29.3132 163.652 30.4688 163.637 31.628C163.645 32.7522 163.474 33.8706 163.129 34.9416C162.826 35.8961 162.351 36.7883 161.727 37.5748C161.136 38.3061 160.393 38.9017 159.548 39.3203C158.674 39.7408 157.714 39.9536 156.743 39.9417C156.311 39.9415 155.88 39.8919 155.459 39.7937C155.099 39.7015 154.749 39.5726 154.415 39.4091C154.103 39.2362 153.812 39.0277 153.549 38.7878C153.281 38.5511 153.042 38.2848 152.773 38.0186L152.594 38.8174C152.578 38.9505 152.535 39.0791 152.469 39.1959C152.402 39.3127 152.313 39.4153 152.206 39.4979C151.979 39.6257 151.721 39.6872 151.46 39.6754H148.267V39.7346ZM156.116 27.131C155.795 27.1284 155.475 27.1581 155.161 27.2198C154.878 27.2739 154.605 27.3738 154.355 27.5156C154.102 27.6355 153.87 27.7954 153.669 27.989C153.445 28.1916 153.236 28.409 153.042 28.6399V35.415C153.354 35.7962 153.768 36.0832 154.236 36.2434C154.666 36.3986 155.121 36.4786 155.579 36.4801C156.002 36.4867 156.421 36.3955 156.802 36.2138C157.19 36.0164 157.527 35.7329 157.787 35.3854C158.086 34.9207 158.308 34.4112 158.444 33.8766C158.611 33.1388 158.692 32.3842 158.683 31.628C158.693 30.9139 158.633 30.2005 158.503 29.4979C158.409 29.0109 158.238 28.5416 157.996 28.1073C157.815 27.7738 157.533 27.5048 157.19 27.3381C156.851 27.193 156.485 27.1224 156.116 27.131Z" fill="#12C0DD"/>
<path d="M171.247 16.7168V39.7641H166.442V16.7168H171.247Z" fill="#12C0DD"/>
<path d="M182.289 23.55C183.429 23.5317 184.562 23.7223 185.632 24.1122C186.601 24.4724 187.485 25.0263 188.228 25.7394C188.973 26.4624 189.544 27.342 189.9 28.3133C190.696 30.5231 190.696 32.9379 189.9 35.1477C189.541 36.1259 188.97 37.0144 188.228 37.7512C187.491 38.4797 186.606 39.0445 185.632 39.408C184.564 39.808 183.431 40.0086 182.289 39.9997C181.138 40.0086 179.995 39.808 178.917 39.408C177.943 39.0445 177.058 38.4797 176.32 37.7512C175.579 37.0082 175 36.122 174.619 35.1477C174.213 34.0487 174.011 32.886 174.022 31.7157C174.008 30.5548 174.211 29.4014 174.619 28.3133C174.985 27.3403 175.567 26.4608 176.32 25.7394C177.064 25.0263 177.948 24.4724 178.917 24.1122C179.997 23.7222 181.14 23.5317 182.289 23.55ZM182.289 36.4494C183.394 36.4494 184.199 36.0648 184.737 35.2956C185.274 34.5264 185.513 33.3429 185.513 31.7749C185.513 30.2068 185.244 29.0234 184.737 28.2542C184.229 27.4849 183.394 27.1003 182.289 27.1003C181.185 27.1003 180.32 27.4849 179.782 28.2542C179.245 29.0234 178.977 30.2068 178.977 31.7749C178.977 33.3429 179.245 34.5264 179.782 35.2956C180.32 36.0648 181.155 36.4494 182.289 36.4494Z" fill="#12C0DD"/>
<path d="M197.928 16.7168V29.6162H198.644C198.879 29.6341 199.115 29.5934 199.331 29.4979C199.508 29.3814 199.661 29.2304 199.778 29.0541L202.852 24.557C203.006 24.3094 203.222 24.1056 203.479 23.9653C203.769 23.8354 204.086 23.7746 204.404 23.7878H208.821L204.673 29.4683C204.477 29.7252 204.257 29.963 204.016 30.1783C203.78 30.382 203.531 30.5698 203.27 30.7405C203.767 31.1188 204.183 31.5915 204.494 32.131L209.03 39.7641H204.673C204.355 39.7741 204.039 39.7135 203.748 39.5866C203.468 39.4535 203.238 39.236 203.091 38.9653L200.047 33.3144C199.946 33.1101 199.791 32.9364 199.599 32.8115C199.384 32.7159 199.148 32.6752 198.913 32.6931H197.988V39.7641H193.183V16.7168H197.928Z" fill="#12C0DD"/>
</g>
<defs>
<clipPath id="clip0">
<rect width="209" height="40" fill="white"/>
</clipPath>
</defs>
</svg>
