<svg width="28" height="30" viewBox="0 0 28 30" fill="none" xmlns="http://www.w3.org/2000/svg">
<path d="M27.1439 7.52344C25.4318 7.52344 23.8521 6.95625 22.5835 5.99941C21.1287 4.90254 20.0833 3.29355 19.7142 1.43906C19.6228 0.980859 19.5736 0.508008 19.5689 0.0234375H14.6781L14.6722 20.7076C14.6722 22.6646 13.3978 24.324 11.6312 24.9076C11.1185 25.077 10.5648 25.1572 9.98822 25.1256C9.25228 25.0852 8.56263 24.8631 7.96322 24.5045C6.68763 23.7416 5.82279 22.3576 5.79935 20.7744C5.76244 18.3 7.76283 16.2826 10.2355 16.2826C10.7236 16.2826 11.1923 16.3623 11.6312 16.507V11.5412C11.1683 11.4727 10.6972 11.4369 10.2208 11.4369C7.51439 11.4369 4.98314 12.5619 3.17377 14.5887C1.80619 16.1203 0.985877 18.0744 0.859314 20.1234C0.693494 22.8152 1.67845 25.374 3.58861 27.2619C3.86927 27.5391 4.164 27.7963 4.4722 28.0336C6.1099 29.2939 8.11205 29.9771 10.2208 29.9771C10.6972 29.9771 11.1683 29.942 11.6312 29.8734C13.6011 29.5816 15.4187 28.6799 16.8531 27.2619C18.6156 25.5199 19.5894 23.2072 19.5999 20.7457L19.5747 9.81445C20.4156 10.4631 21.3349 10.9998 22.3216 11.4164C23.8562 12.0639 25.4833 12.392 27.1579 12.3914V7.52227L27.1439 7.52344Z" fill="white"/>
</svg>
