<svg width="30" height="22" viewBox="0 0 30 22" fill="none" xmlns="http://www.w3.org/2000/svg">
<path d="M28.725 2.675C27.9112 1.2275 27.0281 0.96125 25.23 0.86C23.4338 0.738125 18.9169 0.6875 15.0037 0.6875C11.0831 0.6875 6.56437 0.738125 4.77 0.858125C2.97562 0.96125 2.09063 1.22562 1.26937 2.675C0.43125 4.12063 0 6.61063 0 10.9944C0 10.9981 0 11 0 11C0 11.0037 0 11.0056 0 11.0056V11.0094C0 15.3744 0.43125 17.8831 1.26937 19.3137C2.09063 20.7612 2.97375 21.0238 4.76813 21.1456C6.56437 21.2506 11.0831 21.3125 15.0037 21.3125C18.9169 21.3125 23.4338 21.2506 25.2319 21.1475C27.03 21.0256 27.9131 20.7631 28.7269 19.3156C29.5725 17.885 30 15.3762 30 11.0112C30 11.0112 30 11.0056 30 11.0019C30 11.0019 30 10.9981 30 10.9963C30 6.61063 29.5725 4.12063 28.725 2.675ZM11.25 16.625V5.375L20.625 11L11.25 16.625Z" fill="white"/>
</svg>
